<svg xmlns="http://www.w3.org/2000/svg" viewBox="0 0 320 180" preserveAspectRatio="xMidYMid slice">
  <defs>
    <linearGradient id="bg" x1="0" y1="0" x2="1" y2="1">
      <stop offset="0" stop-color="#fbcfe8"/>
      <stop offset="1" stop-color="#a5b4fc"/>
    </linearGradient>
  </defs>
  <rect width="320" height="180" fill="url(#bg)"/>
  <g>
    <path d="M 60 60 Q 60 30 120 30 L 200 30 Q 260 30 260 60 L 260 100 Q 260 130 200 130 L 150 130 L 130 155 L 135 130 Q 60 130 60 100 Z" fill="#ffffff" stroke="#312e81" stroke-width="2"/>
    <text x="160" y="90" text-anchor="middle" font-family="system-ui,sans-serif" font-size="30" font-weight="700" fill="#312e81">!?</text>
  </g>
  <g fill="#fde047" stroke="#b45309" stroke-width="1">
    <polygon points="45,45 50,55 60,60 50,65 45,75 40,65 30,60 40,55"/>
    <polygon points="280,90 283,97 290,100 283,103 280,110 277,103 270,100 277,97"/>
    <polygon points="30,140 34,148 42,152 34,156 30,164 26,156 18,152 26,148"/>
  </g>
</svg>
